<svg width="32" height="32" viewBox="0 0 32 32" fill="none" xmlns="http://www.w3.org/2000/svg">
<g clip-path="url(#clip0_558_9854)">
<path d="M32.1127 5.68058C31.8318 5.39965 31.4983 5.17689 31.1312 5.02506C30.7642 4.87323 30.3707 4.79532 29.9735 4.79579C29.6679 4.79579 29.3618 4.84166 29.0679 4.93393C29.2696 4.28731 29.2488 3.59177 29.0088 2.95837C28.7688 2.32497 28.3235 1.79025 27.7441 1.43959C27.1646 1.08893 26.4843 0.942563 25.8118 1.02386C25.1394 1.10516 24.5136 1.40943 24.0344 1.88809C22.3421 3.58034 23.5906 5.68112 23.4605 6.74457C23.4162 7.1067 22.8781 7.82989 22.2344 8.58242C20.0909 6.70244 17.9672 5.35152 16.932 5.60272C16.3438 5.74565 14.8281 6.97177 13.0899 8.57655L26.8573 19.2911C27.7138 18.2756 28.3004 17.4613 28.3959 17.0671C28.6524 16.0095 27.2391 13.8149 25.2957 11.6251C26.0471 11.0187 26.781 10.5376 27.2221 10.5376L27.2551 10.5387C27.3101 10.5317 27.3666 10.5291 27.4263 10.5291C28.0514 10.5291 28.9527 10.8613 29.9084 10.8613C30.6449 10.8613 31.4135 10.664 32.1127 9.9648C32.394 9.6835 32.6171 9.34955 32.7694 8.982C32.9216 8.61446 33 8.22052 33 7.82269C33 7.42486 32.9216 7.03093 32.7694 6.66338C32.6171 6.29584 32.394 5.96188 32.1127 5.68058ZM16.3955 7.22563L16.9288 6.69231L17.4622 7.22563L16.9294 7.75896L16.3955 7.22563ZM17.5731 10.624L17.0398 10.0907L17.5731 9.55681L18.1064 10.0901L17.5731 10.624ZM18.2622 8.82561L17.4622 8.02562L18.2622 7.22563L19.0621 8.02562L18.2622 8.82561ZM19.9949 11.032L19.4616 10.4987L19.9949 9.96533L20.5283 10.4987L19.9949 11.032ZM31.3585 9.21121C30.9548 9.61494 30.5074 9.7952 29.9084 9.7952C29.4844 9.7952 29.0439 9.70774 28.6178 9.62294C28.2028 9.54081 27.8103 9.46294 27.4263 9.46294C27.3511 9.46294 27.2802 9.46561 27.2109 9.47201C26.5015 9.47841 25.5501 10.0437 24.565 10.8309C24.0686 10.3065 23.5566 9.79714 23.0296 9.30348C23.9496 8.21549 24.4557 7.3979 24.5197 6.8747C24.5784 6.39631 24.4808 5.90351 24.3768 5.38192C24.1437 4.2086 24.0472 3.38408 24.7885 2.64222C24.9705 2.45934 25.1869 2.31433 25.4253 2.21556C25.6637 2.11679 25.9192 2.06621 26.1773 2.06676C26.4351 2.06627 26.6905 2.11687 26.9287 2.21564C27.1669 2.31441 27.3831 2.4594 27.565 2.64222C28.0823 3.15955 28.2674 3.91634 28.0492 4.6166C27.9913 4.80244 27.9853 5.0006 28.0319 5.18961C28.0786 5.37861 28.176 5.55125 28.3138 5.68883C28.4515 5.8264 28.6242 5.92365 28.8133 5.97005C29.0024 6.01645 29.2005 6.01022 29.3863 5.95205C29.5766 5.89267 29.7747 5.86246 29.974 5.86245C30.4972 5.86245 30.9889 6.06618 31.3591 6.43471C31.726 6.80357 31.932 7.30275 31.9319 7.82307C31.9318 8.34339 31.7257 8.84249 31.3585 9.21121ZM5.60363 16.9317C5.3519 17.9674 6.70282 20.0916 8.5828 22.2351C7.83028 22.8783 7.10708 23.4164 6.74496 23.4606C6.68798 23.4676 6.63062 23.471 6.57322 23.4708C5.94816 23.4708 5.04684 23.1385 4.09165 23.1385C3.35513 23.1385 2.58714 23.3359 1.88794 24.035C1.40859 24.514 1.1037 25.1398 1.02206 25.8125C0.940425 26.4851 1.08675 27.1657 1.43763 27.7454C1.7885 28.3251 2.32366 28.7703 2.95749 29.0099C3.59131 29.2495 4.28718 29.2696 4.93378 29.067C4.76862 29.5946 4.75098 30.1573 4.88279 30.6942C5.01459 31.2311 5.2908 31.7217 5.6815 32.1128C5.96256 32.3944 6.29644 32.6176 6.66399 32.7698C7.03154 32.922 7.42553 33.0002 7.82334 32.9997C8.22131 33.0001 8.61545 32.922 8.98317 32.7698C9.35089 32.6176 9.68496 32.3943 9.96625 32.1128C11.6585 30.4195 10.41 28.3182 10.539 27.2547C10.514 26.8179 11.003 26.066 11.6249 25.2958C13.8153 27.2398 16.0099 28.6526 17.068 28.3961C17.5187 28.2867 18.5176 27.5374 19.7421 26.4713L7.52895 14.2586C6.46176 15.4821 5.71243 16.4805 5.60363 16.9317ZM10.8324 24.5668C10.0553 25.5406 9.49532 26.4835 9.47239 27.1966C9.43132 27.6526 9.52466 28.1219 9.62279 28.6174C9.85639 29.7912 9.95345 30.6168 9.21213 31.3587C9.02999 31.5413 8.8135 31.6861 8.57514 31.7847C8.33679 31.8833 8.08128 31.9337 7.82334 31.9331C7.51543 31.9334 7.21178 31.8611 6.937 31.7222C6.66222 31.5832 6.42405 31.3814 6.24179 31.1333C6.05952 30.8851 5.9383 30.5975 5.88793 30.2937C5.83757 29.9899 5.85948 29.6786 5.9519 29.3848C6.00994 29.1992 6.01602 29.0011 5.96948 28.8123C5.92294 28.6234 5.82556 28.4508 5.6879 28.3134C5.55045 28.1755 5.37786 28.078 5.18886 28.0314C4.99987 27.9847 4.80171 27.9908 4.61591 28.0489C4.42526 28.1081 4.22675 28.1381 4.02712 28.1379C3.76971 28.1386 3.51471 28.0884 3.27682 27.9901C3.03892 27.8917 2.82283 27.7473 2.641 27.5651C2.27087 27.1934 2.06661 26.7006 2.06661 26.1769C2.06661 25.6532 2.27087 25.1604 2.64207 24.7886C3.0458 24.3849 3.49273 24.2046 4.09112 24.2046C4.51458 24.2046 4.95511 24.2921 5.3807 24.3764C5.79563 24.4585 6.18816 24.5369 6.57216 24.5369C6.67669 24.5369 6.77802 24.5305 6.87349 24.5193C7.39668 24.4553 8.21427 23.9492 9.30226 23.0292C9.79654 23.5572 10.3068 24.0699 10.8324 24.5668ZM9.50546 17.6938L10.0388 18.2271L9.50546 18.7604L8.97213 18.2271L9.50546 17.6938ZM8.26067 17.4938L7.72734 18.0266L7.19402 17.4938L7.72734 16.9605L8.26067 17.4938ZM7.94974 13.7797L20.556 25.7454C22.5096 23.97 24.8157 21.6361 26.4237 19.7967L12.2196 9.39361C10.7364 10.8091 9.18226 12.4026 7.94974 13.7797ZM11.6766 13.5445L11.1433 13.0112L11.6766 12.4778L12.21 13.0112L11.6766 13.5445ZM15.4099 16.0175L14.8766 16.5509L14.3433 16.0175L14.8761 15.4842L15.4099 16.0175ZM13.5433 14.4176L14.3433 15.2175L13.5433 16.0175L12.7433 15.2175L13.5433 14.4176Z" fill="#777777"/>
</g>
<defs>
<clipPath id="clip0_558_9854">
<rect width="32" height="32" fill="white"/>
</clipPath>
</defs>
</svg>
